<svg width="16" height="24" viewBox="0 0 16 24" fill="none" xmlns="http://www.w3.org/2000/svg">
<path d="M16.0094 16.8952C16.0094 14.3878 14.9964 12.6017 12.9017 11.4854C14.344 10.5409 15.0136 9.08109 15.0136 6.95152C15.0136 4.15217 13.7774 0.820435 7.83661 0.820435H0.590942V23.9022H7.83661C12.7987 23.9022 16.0094 21.1544 16.0094 16.8952ZM7.83661 9.90543H3.90472V4.15217H7.83661C11.2706 4.15217 11.6826 5.74935 11.6826 6.95152C11.6826 8.9437 10.4121 9.90543 7.83661 9.90543ZM8.60924 20.5876H3.90472V13.22H8.60924C10.8757 13.22 12.6613 14.8344 12.6613 16.8952C12.6613 18.9733 10.8757 20.5876 8.60924 20.5876Z" fill="#004572"/>
</svg>
