<svg width="22" height="25" viewBox="0 0 22 25" fill="none" xmlns="http://www.w3.org/2000/svg">
<path d="M11.7568 15.4937H17.6804V18.9113C16.7017 19.7356 14.7958 20.955 12.1689 20.955C7.39565 20.955 3.53244 16.9706 3.53244 12.0761C3.53244 7.1815 7.36131 3.19715 12.0658 3.19715C16.427 3.19715 18.7277 6.32281 18.7449 6.35715L19.569 7.49063V2.64759L19.3974 2.5102C15.9634 -0.151759 12.2032 0.0715013 12.0658 0.0715013C5.50697 0.0715013 0.149994 5.46411 0.149994 12.0761C0.149994 18.7052 5.54131 24.0806 12.1517 24.0806C12.186 24.0978 12.2375 24.0978 12.3234 24.0978C13.2849 24.0978 17.5773 23.8745 20.8911 20.3024L21.0113 20.165V12.4024H12.787L11.7568 15.4937Z" fill="#004572"/>
</svg>
