<svg width="18" height="24" viewBox="0 0 18 24" fill="none" xmlns="http://www.w3.org/2000/svg">
<path d="M9.7681 10.2041L9.35603 10.0496C6.96942 9.19087 4.49697 8.315 4.49697 6.51174C4.49697 4.2963 5.78471 3.26587 8.54904 3.26587C11.4507 3.26587 13.5798 4.50239 14.5241 5.55L15.314 6.44304V2.44152L15.1766 2.30413C14.4898 1.61717 12.4809 0.0371704 8.54904 0.0371704C4.90904 0.0371704 1.02867 1.73739 1.02867 6.51174C1.02867 10.7537 5.75037 12.368 8.01678 13.158L8.29149 13.2439C10.7639 14.0854 13.5798 15.0472 13.5798 17.0222C13.5798 19.4952 11.8628 20.7489 8.4632 20.7489C6.26547 20.7489 3.05471 19.1346 1.71547 17.9839L0.959991 17.3313V21.247L1.11451 21.3843C1.99017 22.14 4.4283 23.9261 8.4632 23.9261C15.5543 23.9261 17.0481 20.1822 17.0481 17.0222C17.0481 12.7459 12.6698 11.2174 9.7681 10.2041Z" fill="#004572"/>
</svg>
