<svg width="3" height="4" viewBox="0 0 3 4" fill="none" xmlns="http://www.w3.org/2000/svg">
<path d="M1.13677 0.92585C1.13677 0.857155 1.13677 0.771284 1.20545 0.736936C1.25696 0.719762 1.42865 0.719765 1.49733 0.719765C1.61752 0.719765 1.78922 0.719766 1.90941 0.754114C2.04677 0.788462 2.09828 0.857156 2.14979 0.994548L2.2013 1.09759C2.21846 1.13194 2.23564 1.18346 2.26998 1.18346C2.30432 1.18346 2.30432 1.11477 2.30432 1.09759V0.754114C2.30432 0.702592 2.32149 0.599548 2.25281 0.599548C1.92658 0.599548 1.60036 0.616719 1.27413 0.616719C1.03375 0.616719 0.793372 0.599548 0.552995 0.599548C0.518655 0.599548 0.484314 0.633898 0.484314 0.668246C0.484314 0.719767 0.552996 0.719765 0.587335 0.719765C0.862052 0.719765 0.844885 0.788458 0.844885 1.04607V2.66042C0.844885 2.91803 0.862052 2.98672 0.587335 2.98672C0.552996 2.98672 0.484314 3.00389 0.484314 3.03824C0.484314 3.08976 0.518655 3.10694 0.552995 3.10694C0.638844 3.10694 0.724692 3.08977 0.793371 3.08977H2.28714C2.32148 3.08977 2.32149 3.08977 2.33866 3.05542L2.39016 2.64324C2.39016 2.60889 2.40734 2.57455 2.40734 2.5402C2.40734 2.52303 2.39017 2.50585 2.373 2.50585C2.32149 2.50585 2.28714 2.60889 2.28714 2.64324C2.14978 2.98672 1.94375 2.98672 1.61752 2.98672C1.30846 2.98672 1.13677 2.98672 1.13677 2.62607V1.93911C1.13677 1.80172 1.17111 1.80172 1.32564 1.80172C1.44583 1.80172 1.65186 1.80172 1.78922 1.83607C1.87507 1.85325 1.90941 1.97346 1.92658 2.09368C1.92658 2.11085 1.94375 2.1452 1.97809 2.1452C1.99526 2.1452 2.01243 2.1452 2.01243 2.07651C2.01243 1.95629 2.01243 1.83607 1.99526 1.71585C2.01243 1.59563 2.01243 1.47542 2.01243 1.37238C2.01243 1.33803 1.99526 1.32085 1.97809 1.32085C1.94375 1.32085 1.92658 1.37237 1.92658 1.38955C1.90941 1.50976 1.89224 1.66433 1.78922 1.66433C1.65186 1.6815 1.44583 1.68151 1.32564 1.68151C1.17111 1.68151 1.13677 1.68151 1.13677 1.49259V0.92585Z" fill="#004572"/>
</svg>
