<svg width="6" height="8" viewBox="0 0 6 8" fill="none" xmlns="http://www.w3.org/2000/svg">
<path d="M4.40337 6.16479C4.40337 6.37088 4.42054 6.50827 4.30035 6.68001C4.02563 7.00631 3.54488 7.16087 3.14998 7.16087C2.06828 7.16087 1.45016 6.11327 1.45016 5.08283C1.45016 4.06957 2.08545 3.15935 3.14998 3.05631C3.4762 3.02196 3.92262 3.14218 4.163 3.38262C4.42054 3.62305 4.40337 4.01805 4.40337 4.32718V6.16479ZM5.05583 0.617617C5.05583 0.548921 5.05582 0.531749 4.96997 0.531749C4.90129 0.531749 4.00847 0.480227 3.73375 0.531749C3.68224 0.531749 3.6479 0.617618 3.6479 0.686314C3.6479 0.823705 3.75092 0.875225 3.83677 0.858051C4.52356 0.789355 4.40337 1.42479 4.40337 1.80261V2.76436C4.40337 2.83305 4.43771 3.14218 4.31753 3.14218C4.26602 3.14218 4.18017 3.10783 4.12866 3.09066C3.8196 2.95327 3.45903 2.90174 3.09846 2.8674C2.46318 2.85022 1.86224 3.17653 1.41582 3.60587C0.986578 4.03522 0.729034 4.60196 0.729034 5.2374C0.729034 6.45674 1.60469 7.59022 2.84092 7.59022C3.63073 7.59022 4.26602 7.10936 4.35187 6.90327C4.38621 6.8174 4.40337 7.2124 4.40337 7.24675C4.40337 7.31544 4.45488 7.52153 4.5579 7.52153C4.60941 7.52153 5.70828 7.55588 5.75979 7.52153C5.75979 7.52153 5.84563 7.41848 5.8628 7.28109C5.8628 7.28109 5.72545 7.1437 5.65677 7.1437H5.22752C5.03866 7.1437 5.07299 6.62848 5.07299 6.52544L5.05583 0.617617Z" fill="#004572"/>
</svg>
