<svg width="5" height="6" viewBox="0 0 5 6" fill="none" xmlns="http://www.w3.org/2000/svg">
<path d="M4.88054 2.70504C4.98356 2.70504 5.00073 2.61917 5.00073 2.5333C5.00073 2.18982 4.86337 1.76048 4.65734 1.50287C4.31394 1.07352 3.78167 0.867432 3.24941 0.867432C2.59695 0.867432 1.97885 1.10787 1.49809 1.55439C0.982996 2.01809 0.794128 2.56765 0.794128 3.25461C0.794128 4.52548 1.73847 5.59026 3.0262 5.59026C3.62715 5.59026 4.1079 5.4357 4.57148 5.02352C4.62299 4.95483 4.94922 4.68004 4.94922 4.55983C4.94922 4.52548 4.91488 4.49113 4.86337 4.49113C4.74318 4.49113 4.38262 5.14374 3.42111 5.14374C2.23639 5.14374 1.53242 4.16482 1.53242 3.01417C1.53242 2.68787 1.61828 2.70504 1.92734 2.70504H4.88054ZM1.92734 2.46461C1.82432 2.46461 1.60111 2.48178 1.60111 2.32722C1.60111 2.17265 1.75563 1.84635 1.84148 1.7433C2.13337 1.31396 2.61413 1.05635 3.11205 1.05635C3.43828 1.05635 3.74733 1.14222 3.97054 1.36548C4.1079 1.52004 4.22809 1.76048 4.22809 1.96657C4.22809 2.22418 4.07356 2.32722 3.86752 2.37874C3.57563 2.44743 3.0262 2.46461 2.73431 2.46461H1.92734Z" fill="#004572"/>
</svg>
