<svg width="8" height="8" viewBox="0 0 8 8" fill="none" xmlns="http://www.w3.org/2000/svg">
<path d="M6.20113 5.94152L2.54395 0.995436C2.42376 0.823697 2.33792 0.68631 2.13188 0.617615H0.844143C0.741125 0.617615 0.603767 0.63479 0.603767 0.806529C0.603767 0.909572 0.758298 0.909568 0.861317 0.909568C1.58245 0.909568 1.53094 1.13283 1.53094 1.80261V6.19914C1.53094 6.86892 1.58245 7.09218 0.861317 7.09218C0.758298 7.09218 0.586594 7.05783 0.586594 7.2124C0.586594 7.31544 0.672444 7.36696 0.775463 7.36696H2.5783C2.68132 7.36696 2.74999 7.31544 2.74999 7.2124C2.74999 7.05783 2.59546 7.09218 2.49244 7.09218C1.77131 7.09218 1.82282 6.86892 1.82282 6.19914V1.33892L6.16678 7.2124C6.21829 7.29827 6.30414 7.47 6.42433 7.47C6.51018 7.47 6.49301 7.31544 6.49301 7.26392V1.80261C6.49301 1.15 6.45867 0.909568 7.16263 0.909568C7.26565 0.909568 7.43736 0.909572 7.43736 0.806529C7.43736 0.686311 7.3515 0.617615 7.26565 0.617615H5.44565C5.34263 0.617615 5.27396 0.686311 5.27396 0.806529C5.27396 0.909572 5.42849 0.909568 5.53151 0.909568C6.25264 0.909568 6.20113 1.13283 6.20113 1.80261V5.94152Z" fill="#004572"/>
</svg>
