<svg width="4" height="4" viewBox="0 0 4 4" fill="none" xmlns="http://www.w3.org/2000/svg">
<path d="M2.08641 2.62607L1.39962 0.943028C1.38245 0.891506 1.34811 0.839981 1.34811 0.771285C1.34811 0.702589 1.51981 0.719768 1.53698 0.702594C1.57132 0.702594 1.62283 0.70259 1.62283 0.651068C1.62283 0.599546 1.58849 0.599548 1.55415 0.599548C1.43396 0.599548 1.31377 0.616719 1.19358 0.616719C1.05622 0.616719 0.936036 0.599548 0.798677 0.599548C0.764338 0.599548 0.71283 0.61672 0.71283 0.651068C0.71283 0.719764 0.781505 0.719765 0.815844 0.719765C0.987542 0.719765 1.03905 0.839985 1.09056 0.977377L1.91471 3.02107C1.93188 3.03824 1.94905 3.14129 1.98339 3.14129C2.01773 3.14129 2.0349 3.03824 2.05207 3.02107L2.82472 1.0289C2.85906 0.943027 2.91056 0.822807 2.97924 0.771285C3.01358 0.719763 3.08226 0.719765 3.13377 0.719765C3.16811 0.719765 3.21962 0.70259 3.21962 0.651068C3.21962 0.61672 3.20245 0.599548 3.16811 0.599548C3.06509 0.599548 2.96207 0.616719 2.84188 0.616719C2.73886 0.616719 2.63585 0.599548 2.51566 0.599548C2.48132 0.599548 2.42981 0.616724 2.42981 0.668246C2.42981 0.719767 2.56717 0.719765 2.60151 0.719765C2.67019 0.719765 2.7732 0.736941 2.7732 0.822811C2.7732 0.891507 2.73887 0.977374 2.70453 1.0289L2.08641 2.62607Z" fill="#004572"/>
</svg>
